<svg width="17" height="16" viewBox="0 0 17 16" fill="none" xmlns="http://www.w3.org/2000/svg">
<path d="M1.55469 1.3667H2.88802L4.66135 9.6467C4.72641 9.94994 4.89513 10.221 5.1385 10.4133C5.38186 10.6055 5.68462 10.7069 5.99469 10.7H12.5147C12.8181 10.6995 13.1123 10.5956 13.3487 10.4053C13.5851 10.215 13.7494 9.94972 13.8147 9.65336L14.9147 4.70003H3.60135M6.18802 14C6.18802 14.3682 5.88954 14.6667 5.52135 14.6667C5.15316 14.6667 4.85469 14.3682 4.85469 14C4.85469 13.6318 5.15316 13.3334 5.52135 13.3334C5.88954 13.3334 6.18802 13.6318 6.18802 14ZM13.5214 14C13.5214 14.3682 13.2229 14.6667 12.8547 14.6667C12.4865 14.6667 12.188 14.3682 12.188 14C12.188 13.6318 12.4865 13.3334 12.8547 13.3334C13.2229 13.3334 13.5214 13.6318 13.5214 14Z" stroke="#18181B" stroke-linecap="round" stroke-linejoin="round"/>
</svg>
